<svg width="191" height="49" viewBox="0 0 191 49" fill="none" xmlns="http://www.w3.org/2000/svg">
<path d="M29.9238 16.0095L5.20117 49H185.201L160.479 16.0095C154.813 8.44972 145.918 4 136.471 4H53.9309C44.484 4 35.5889 8.44972 29.9238 16.0095Z" fill="#242325"/>
<path fill-rule="evenodd" clip-rule="evenodd" d="M33.1245 18.4082C38.0343 11.8564 45.7433 8 53.9306 8H136.471C144.659 8 152.368 11.8564 157.277 18.4082L181 49H190.402L163.679 13.6107C157.259 5.04302 147.178 0 136.471 0H53.9306C43.2242 0 33.1431 5.04302 26.7226 13.6107L0 49H10.4019L33.1245 18.4082Z" fill="url(#paint0_linear_406_43)"/>
<path d="M39.0401 21.424H44.2321L47.8181 31.588H47.8621L51.4701 21.424H56.6401V37H53.2081V25.054H53.1641L49.0721 37H46.4541L42.5161 25.054H42.4721V37H39.0401V21.424ZM59.4414 26.308H62.7414V37H59.4414V26.308ZM59.1774 22.942C59.1774 22.414 59.3608 21.9667 59.7274 21.6C60.1088 21.2187 60.5634 21.028 61.0914 21.028C61.6194 21.028 62.0668 21.2187 62.4334 21.6C62.8148 21.9667 63.0054 22.414 63.0054 22.942C63.0054 23.47 62.8148 23.9247 62.4334 24.306C62.0668 24.6727 61.6194 24.856 61.0914 24.856C60.5634 24.856 60.1088 24.6727 59.7274 24.306C59.3608 23.9247 59.1774 23.47 59.1774 22.942ZM65.1123 26.308H68.4123V28.024H68.4563C68.8083 27.364 69.2263 26.8727 69.7103 26.55C70.1943 26.2127 70.803 26.044 71.5363 26.044C71.727 26.044 71.9176 26.0513 72.1083 26.066C72.299 26.0807 72.475 26.11 72.6363 26.154V29.168C72.4016 29.0947 72.167 29.0433 71.9323 29.014C71.7123 28.97 71.4776 28.948 71.2283 28.948C70.5976 28.948 70.099 29.036 69.7323 29.212C69.3656 29.388 69.0796 29.6373 68.8743 29.96C68.6836 30.268 68.559 30.642 68.5003 31.082C68.4416 31.522 68.4123 32.006 68.4123 32.534V37H65.1123V26.308ZM74.0713 26.308H77.3713V28.024H77.4153C77.7673 27.364 78.1853 26.8727 78.6693 26.55C79.1533 26.2127 79.7619 26.044 80.4953 26.044C80.6859 26.044 80.8766 26.0513 81.0673 26.066C81.2579 26.0807 81.4339 26.11 81.5953 26.154V29.168C81.3606 29.0947 81.1259 29.0433 80.8913 29.014C80.6713 28.97 80.4366 28.948 80.1873 28.948C79.5566 28.948 79.0579 29.036 78.6913 29.212C78.3246 29.388 78.0386 29.6373 77.8333 29.96C77.6426 30.268 77.5179 30.642 77.4593 31.082C77.4006 31.522 77.3713 32.006 77.3713 32.534V37H74.0713V26.308ZM82.2475 31.654C82.2475 30.8033 82.4015 30.0333 82.7095 29.344C83.0175 28.6547 83.4355 28.068 83.9635 27.584C84.5062 27.0853 85.1369 26.704 85.8555 26.44C86.5889 26.176 87.3662 26.044 88.1875 26.044C89.0089 26.044 89.7789 26.176 90.4975 26.44C91.2309 26.704 91.8615 27.0853 92.3895 27.584C92.9322 28.068 93.3575 28.6547 93.6655 29.344C93.9735 30.0333 94.1275 30.8033 94.1275 31.654C94.1275 32.5047 93.9735 33.2747 93.6655 33.964C93.3575 34.6533 92.9322 35.2473 92.3895 35.746C91.8615 36.23 91.2309 36.604 90.4975 36.868C89.7789 37.132 89.0089 37.264 88.1875 37.264C87.3662 37.264 86.5889 37.132 85.8555 36.868C85.1369 36.604 84.5062 36.23 83.9635 35.746C83.4355 35.2473 83.0175 34.6533 82.7095 33.964C82.4015 33.2747 82.2475 32.5047 82.2475 31.654ZM85.5475 31.654C85.5475 32.4607 85.7749 33.1133 86.2295 33.612C86.6989 34.1107 87.3515 34.36 88.1875 34.36C89.0235 34.36 89.6689 34.1107 90.1235 33.612C90.5929 33.1133 90.8275 32.4607 90.8275 31.654C90.8275 30.8473 90.5929 30.1947 90.1235 29.696C89.6689 29.1973 89.0235 28.948 88.1875 28.948C87.3515 28.948 86.6989 29.1973 86.2295 29.696C85.7749 30.1947 85.5475 30.8473 85.5475 31.654ZM96.0713 26.308H99.3713V28.024H99.4153C99.7673 27.364 100.185 26.8727 100.669 26.55C101.153 26.2127 101.762 26.044 102.495 26.044C102.686 26.044 102.877 26.0513 103.067 26.066C103.258 26.0807 103.434 26.11 103.595 26.154V29.168C103.361 29.0947 103.126 29.0433 102.891 29.014C102.671 28.97 102.437 28.948 102.187 28.948C101.557 28.948 101.058 29.036 100.691 29.212C100.325 29.388 100.039 29.6373 99.8333 29.96C99.6426 30.268 99.5179 30.642 99.4593 31.082C99.4006 31.522 99.3713 32.006 99.3713 32.534V37H96.0713V26.308ZM105.448 21.424H110.64L114.226 31.588H114.27L117.878 21.424H123.048V37H119.616V25.054H119.572L115.48 37H112.862L108.924 25.054H108.88V37H105.448V21.424ZM136.102 37H132.934V35.548H132.89C132.772 35.7533 132.618 35.9587 132.428 36.164C132.252 36.3693 132.032 36.5527 131.768 36.714C131.504 36.8753 131.203 37.0073 130.866 37.11C130.528 37.2127 130.162 37.264 129.766 37.264C128.93 37.264 128.248 37.1393 127.72 36.89C127.206 36.626 126.803 36.2667 126.51 35.812C126.231 35.3573 126.04 34.822 125.938 34.206C125.85 33.59 125.806 32.9227 125.806 32.204V26.308H129.106V31.544C129.106 31.852 129.113 32.1747 129.128 32.512C129.157 32.8347 129.223 33.1353 129.326 33.414C129.443 33.6927 129.612 33.92 129.832 34.096C130.066 34.272 130.396 34.36 130.822 34.36C131.247 34.36 131.592 34.2867 131.856 34.14C132.12 33.9787 132.318 33.7733 132.45 33.524C132.596 33.26 132.692 32.9667 132.736 32.644C132.78 32.3213 132.802 31.984 132.802 31.632V26.308H136.102V37ZM138.482 20.368H141.782V37H138.482V20.368ZM151.435 28.948H148.531V32.512C148.531 32.8053 148.546 33.0767 148.575 33.326C148.605 33.5607 148.671 33.766 148.773 33.942C148.876 34.118 149.03 34.2573 149.235 34.36C149.455 34.448 149.741 34.492 150.093 34.492C150.269 34.492 150.497 34.4773 150.775 34.448C151.069 34.404 151.289 34.316 151.435 34.184V36.934C151.069 37.066 150.687 37.154 150.291 37.198C149.895 37.242 149.507 37.264 149.125 37.264C148.568 37.264 148.055 37.2053 147.585 37.088C147.116 36.9707 146.705 36.7873 146.353 36.538C146.001 36.274 145.723 35.9367 145.517 35.526C145.327 35.1153 145.231 34.6167 145.231 34.03V28.948H143.119V26.308H145.231V23.14H148.531V26.308H151.435V28.948Z" fill="white"/>
<defs>
<linearGradient id="paint0_linear_406_43" x1="6.20117" y1="49" x2="186.201" y2="49" gradientUnits="userSpaceOnUse">
<stop stop-color="#FF3FBE"/>
<stop offset="0.552083" stop-color="#C60BFF"/>
<stop offset="1" stop-color="#FFB800"/>
</linearGradient>
</defs>
</svg>
