<svg width="192" height="49" viewBox="0 0 192 49" fill="none" xmlns="http://www.w3.org/2000/svg">
<path d="M30.7226 16.0095L6 49H186L161.277 16.0095C155.612 8.44972 146.717 4 137.27 4H54.7297C45.2828 4 36.3878 8.44972 30.7226 16.0095Z" fill="#242325"/>
<path fill-rule="evenodd" clip-rule="evenodd" d="M33.9233 18.4082C38.8331 11.8564 46.5422 8 54.7295 8H137.27C145.457 8 153.166 11.8564 158.076 18.4082L181.799 49H191.201L164.478 13.6107C158.058 5.04302 147.977 0 137.27 0H54.7295C44.023 0 33.9419 5.04302 27.5214 13.6107L0.798828 49H11.2007L33.9233 18.4082Z" fill="url(#paint0_linear_406_44)"/>
<path d="M46.6865 21.424H52.7145C53.5065 21.424 54.2545 21.5047 54.9585 21.666C55.6772 21.8127 56.3005 22.0693 56.8285 22.436C57.3712 22.788 57.7965 23.272 58.1045 23.888C58.4272 24.4893 58.5885 25.2447 58.5885 26.154C58.5885 27.254 58.3025 28.1927 57.7305 28.97C57.1585 29.7327 56.3225 30.2167 55.2225 30.422L59.1825 37H55.0685L51.8125 30.774H50.1185V37H46.6865V21.424ZM50.1185 27.87H52.1425C52.4505 27.87 52.7732 27.8627 53.1105 27.848C53.4625 27.8187 53.7779 27.7527 54.0565 27.65C54.3352 27.5327 54.5625 27.3567 54.7385 27.122C54.9292 26.8873 55.0245 26.5573 55.0245 26.132C55.0245 25.736 54.9439 25.4207 54.7825 25.186C54.6212 24.9513 54.4159 24.7753 54.1665 24.658C53.9172 24.526 53.6312 24.438 53.3085 24.394C52.9859 24.35 52.6705 24.328 52.3625 24.328H50.1185V27.87ZM60.1382 31.654C60.1382 30.8033 60.2922 30.0333 60.6002 29.344C60.9082 28.6547 61.3262 28.068 61.8542 27.584C62.3968 27.0853 63.0275 26.704 63.7462 26.44C64.4795 26.176 65.2568 26.044 66.0782 26.044C66.8995 26.044 67.6695 26.176 68.3882 26.44C69.1215 26.704 69.7522 27.0853 70.2802 27.584C70.8228 28.068 71.2482 28.6547 71.5562 29.344C71.8642 30.0333 72.0182 30.8033 72.0182 31.654C72.0182 32.5047 71.8642 33.2747 71.5562 33.964C71.2482 34.6533 70.8228 35.2473 70.2802 35.746C69.7522 36.23 69.1215 36.604 68.3882 36.868C67.6695 37.132 66.8995 37.264 66.0782 37.264C65.2568 37.264 64.4795 37.132 63.7462 36.868C63.0275 36.604 62.3968 36.23 61.8542 35.746C61.3262 35.2473 60.9082 34.6533 60.6002 33.964C60.2922 33.2747 60.1382 32.5047 60.1382 31.654ZM63.4382 31.654C63.4382 32.4607 63.6655 33.1133 64.1202 33.612C64.5895 34.1107 65.2422 34.36 66.0782 34.36C66.9142 34.36 67.5595 34.1107 68.0142 33.612C68.4835 33.1133 68.7182 32.4607 68.7182 31.654C68.7182 30.8473 68.4835 30.1947 68.0142 29.696C67.5595 29.1973 66.9142 28.948 66.0782 28.948C65.2422 28.948 64.5895 29.1973 64.1202 29.696C63.6655 30.1947 63.4382 30.8473 63.4382 31.654ZM81.2439 28.948H78.3399V32.512C78.3399 32.8053 78.3546 33.0767 78.3839 33.326C78.4132 33.5607 78.4792 33.766 78.5819 33.942C78.6846 34.118 78.8386 34.2573 79.0439 34.36C79.2639 34.448 79.5499 34.492 79.9019 34.492C80.0779 34.492 80.3052 34.4773 80.5839 34.448C80.8772 34.404 81.0972 34.316 81.2439 34.184V36.934C80.8772 37.066 80.4959 37.154 80.0999 37.198C79.7039 37.242 79.3152 37.264 78.9339 37.264C78.3766 37.264 77.8632 37.2053 77.3939 37.088C76.9246 36.9707 76.5139 36.7873 76.1619 36.538C75.8099 36.274 75.5312 35.9367 75.3259 35.526C75.1352 35.1153 75.0399 34.6167 75.0399 34.03V28.948H72.9279V26.308H75.0399V23.14H78.3399V26.308H81.2439V28.948ZM91.0389 25.23C90.7602 24.878 90.3789 24.6213 89.8949 24.46C89.4255 24.284 88.9782 24.196 88.5529 24.196C88.3035 24.196 88.0469 24.2253 87.7829 24.284C87.5189 24.3427 87.2695 24.438 87.0349 24.57C86.8002 24.6873 86.6095 24.8487 86.4629 25.054C86.3162 25.2593 86.2429 25.5087 86.2429 25.802C86.2429 26.2713 86.4189 26.6307 86.7709 26.88C87.1229 27.1293 87.5629 27.342 88.0909 27.518C88.6335 27.694 89.2129 27.87 89.8289 28.046C90.4449 28.222 91.0169 28.4713 91.5449 28.794C92.0875 29.1167 92.5349 29.5493 92.8869 30.092C93.2389 30.6347 93.4149 31.3607 93.4149 32.27C93.4149 33.1353 93.2536 33.8907 92.9309 34.536C92.6082 35.1813 92.1682 35.7167 91.6109 36.142C91.0682 36.5673 90.4302 36.8827 89.6969 37.088C88.9782 37.2933 88.2155 37.396 87.4089 37.396C86.3969 37.396 85.4582 37.242 84.5929 36.934C83.7275 36.626 82.9209 36.1273 82.1729 35.438L84.6149 32.754C84.9669 33.2233 85.4069 33.59 85.9349 33.854C86.4775 34.1033 87.0349 34.228 87.6069 34.228C87.8855 34.228 88.1642 34.1987 88.4429 34.14C88.7362 34.0667 88.9929 33.964 89.2129 33.832C89.4475 33.7 89.6309 33.5313 89.7629 33.326C89.9095 33.1207 89.9829 32.8787 89.9829 32.6C89.9829 32.1307 89.7995 31.764 89.4329 31.5C89.0809 31.2213 88.6335 30.9867 88.0909 30.796C87.5482 30.6053 86.9615 30.4147 86.3309 30.224C85.7002 30.0333 85.1135 29.7767 84.5709 29.454C84.0282 29.1313 83.5735 28.706 83.2069 28.178C82.8549 27.65 82.6789 26.9533 82.6789 26.088C82.6789 25.252 82.8402 24.5187 83.1629 23.888C83.5002 23.2573 83.9402 22.7293 84.4829 22.304C85.0402 21.8787 85.6782 21.5633 86.3969 21.358C87.1155 21.138 87.8562 21.028 88.6189 21.028C89.4989 21.028 90.3495 21.1527 91.1709 21.402C91.9922 21.6513 92.7329 22.0693 93.3929 22.656L91.0389 25.23ZM101.714 38.738C101.494 39.31 101.281 39.816 101.076 40.256C100.87 40.696 100.606 41.0627 100.284 41.356C99.9757 41.664 99.5797 41.8913 99.0957 42.038C98.6117 42.1993 97.9737 42.28 97.1817 42.28C96.331 42.28 95.5097 42.148 94.7177 41.884L95.1577 39.178C95.6564 39.398 96.1697 39.508 96.6977 39.508C97.0644 39.508 97.365 39.464 97.5997 39.376C97.8344 39.3027 98.025 39.1853 98.1717 39.024C98.333 38.8773 98.465 38.694 98.5677 38.474C98.6704 38.254 98.7804 37.9973 98.8977 37.704L99.1397 37.088L94.4537 26.308H98.0177L100.768 33.37H100.812L103.166 26.308H106.554L101.714 38.738ZM107.778 26.308H110.946V27.76H110.99C111.093 27.5547 111.24 27.3493 111.43 27.144C111.621 26.9387 111.848 26.7553 112.112 26.594C112.376 26.4327 112.677 26.3007 113.014 26.198C113.352 26.0953 113.718 26.044 114.114 26.044C114.862 26.044 115.522 26.198 116.094 26.506C116.681 26.814 117.121 27.298 117.414 27.958C117.796 27.2687 118.258 26.7773 118.8 26.484C119.343 26.1907 120.01 26.044 120.802 26.044C121.521 26.044 122.122 26.1687 122.606 26.418C123.105 26.6527 123.494 26.9827 123.772 27.408C124.066 27.8187 124.271 28.31 124.388 28.882C124.52 29.4393 124.586 30.0407 124.586 30.686V37H121.286V30.774C121.286 30.2753 121.176 29.85 120.956 29.498C120.751 29.1313 120.377 28.948 119.834 28.948C119.453 28.948 119.13 29.014 118.866 29.146C118.617 29.2633 118.412 29.432 118.25 29.652C118.104 29.872 117.994 30.1287 117.92 30.422C117.862 30.7153 117.832 31.0233 117.832 31.346V37H114.532V31.346C114.532 31.1553 114.525 30.9207 114.51 30.642C114.496 30.3633 114.444 30.0993 114.356 29.85C114.268 29.6007 114.122 29.388 113.916 29.212C113.726 29.036 113.44 28.948 113.058 28.948C112.633 28.948 112.288 29.0287 112.024 29.19C111.76 29.3367 111.555 29.542 111.408 29.806C111.276 30.0553 111.188 30.3413 111.144 30.664C111.1 30.9867 111.078 31.324 111.078 31.676V37H107.778V26.308ZM126.921 26.308H130.089V27.76H130.133C130.236 27.5547 130.382 27.3493 130.573 27.144C130.764 26.9387 130.991 26.7553 131.255 26.594C131.519 26.4327 131.82 26.3007 132.157 26.198C132.494 26.0953 132.861 26.044 133.257 26.044C134.005 26.044 134.665 26.198 135.237 26.506C135.824 26.814 136.264 27.298 136.557 27.958C136.938 27.2687 137.4 26.7773 137.943 26.484C138.486 26.1907 139.153 26.044 139.945 26.044C140.664 26.044 141.265 26.1687 141.749 26.418C142.248 26.6527 142.636 26.9827 142.915 27.408C143.208 27.8187 143.414 28.31 143.531 28.882C143.663 29.4393 143.729 30.0407 143.729 30.686V37H140.429V30.774C140.429 30.2753 140.319 29.85 140.099 29.498C139.894 29.1313 139.52 28.948 138.977 28.948C138.596 28.948 138.273 29.014 138.009 29.146C137.76 29.2633 137.554 29.432 137.393 29.652C137.246 29.872 137.136 30.1287 137.063 30.422C137.004 30.7153 136.975 31.0233 136.975 31.346V37H133.675V31.346C133.675 31.1553 133.668 30.9207 133.653 30.642C133.638 30.3633 133.587 30.0993 133.499 29.85C133.411 29.6007 133.264 29.388 133.059 29.212C132.868 29.036 132.582 28.948 132.201 28.948C131.776 28.948 131.431 29.0287 131.167 29.19C130.903 29.3367 130.698 29.542 130.551 29.806C130.419 30.0553 130.331 30.3413 130.287 30.664C130.243 30.9867 130.221 31.324 130.221 31.676V37H126.921V26.308Z" fill="white"/>
<defs>
<linearGradient id="paint0_linear_406_44" x1="7" y1="49" x2="187" y2="49" gradientUnits="userSpaceOnUse">
<stop stop-color="#FF3FBE"/>
<stop offset="0.552083" stop-color="#C60BFF"/>
<stop offset="1" stop-color="#FFB800"/>
</linearGradient>
</defs>
</svg>
